<svg width="16" height="16" viewBox="0 0 16 16" fill="none" xmlns="http://www.w3.org/2000/svg">
<path fill-rule="evenodd" clip-rule="evenodd" d="M7.99984 2.66663C4.6665 2.66663 1.81984 4.73996 0.666504 7.66663C1.81984 10.5933 4.6665 12.6666 7.99984 12.6666C11.3332 12.6666 14.1798 10.5933 15.3332 7.66663C14.1798 4.73996 11.3332 2.66663 7.99984 2.66663ZM7.99984 11C6.15984 11 4.6665 9.50663 4.6665 7.66663C4.6665 5.82663 6.15984 4.33329 7.99984 4.33329C9.83984 4.33329 11.3332 5.82663 11.3332 7.66663C11.3332 9.50663 9.83984 11 7.99984 11ZM5.99984 7.66663C5.99984 6.55996 6.89317 5.66663 7.99984 5.66663C9.1065 5.66663 9.99984 6.55996 9.99984 7.66663C9.99984 8.77329 9.1065 9.66663 7.99984 9.66663C6.89317 9.66663 5.99984 8.77329 5.99984 7.66663Z" fill="#9C9C9C"/>
</svg>
